<svg width="48" height="48" viewBox="0 0 48 48" fill="none" xmlns="http://www.w3.org/2000/svg">
<rect width="48" height="48" rx="24" fill="#00AC1C"/>
<path d="M26.86 32.66C26.86 31.9015 26.5587 31.174 26.0223 30.6377C25.486 30.1013 24.7585 29.8 24 29.8C23.2415 29.8 22.514 30.1013 21.9777 30.6377C21.4413 31.174 21.14 31.9015 21.14 32.66V35.52" stroke="white" stroke-width="1.5" stroke-miterlimit="10"/>
<path d="M24 27.89C25.0548 27.89 25.91 27.0349 25.91 25.98C25.91 24.9251 25.0548 24.07 24 24.07C22.9451 24.07 22.09 24.9251 22.09 25.98C22.09 27.0349 22.9451 27.89 24 27.89Z" stroke="white" stroke-width="1.5" stroke-miterlimit="10"/>
<path d="M31.64 29.8C32.6948 29.8 33.55 28.9448 33.55 27.89C33.55 26.8351 32.6948 25.98 31.64 25.98C30.5851 25.98 29.73 26.8351 29.73 27.89C29.73 28.9448 30.5851 29.8 31.64 29.8Z" stroke="white" stroke-width="1.5" stroke-miterlimit="10"/>
<path d="M13.5 35.52V34.57C13.5 33.8106 13.801 33.0821 14.3371 32.5441C14.8731 32.0062 15.6006 31.7027 16.36 31.7C17.1212 31.7 17.8512 32.0024 18.3894 32.5406C18.9276 33.0788 19.23 33.8088 19.23 34.57V35.52" stroke="white" stroke-width="1.5" stroke-miterlimit="10"/>
<path d="M28.77 35.52V34.57C28.77 33.8088 29.0724 33.0788 29.6106 32.5406C30.1489 32.0024 30.8788 31.7 31.64 31.7C32.3995 31.7027 33.1269 32.0062 33.663 32.5441C34.199 33.0821 34.5 33.8106 34.5 34.57V35.52" stroke="white" stroke-width="1.5" stroke-miterlimit="10"/>
<path d="M16.36 29.8C17.4148 29.8 18.27 28.9448 18.27 27.89C18.27 26.8351 17.4148 25.98 16.36 25.98C15.3051 25.98 14.45 26.8351 14.45 27.89C14.45 28.9448 15.3051 29.8 16.36 29.8Z" stroke="white" stroke-width="1.5" stroke-miterlimit="10"/>
<path d="M26.86 32.66V35.52" stroke="white" stroke-width="1.5" stroke-miterlimit="10"/>
<path d="M24 15.48L24.46 16.42L25.51 16.57L24.75 17.3L24.93 18.34L24 17.85L23.07 18.34L23.25 17.3L22.49 16.57L23.54 16.42L24 15.48Z" stroke="white" stroke-width="1.5" stroke-miterlimit="10"/>
</svg>
