<svg width="48" height="48" viewBox="0 0 48 48" fill="none" xmlns="http://www.w3.org/2000/svg">
<rect width="48" height="48" rx="24" fill="#00AC1C"/>
<g clip-path="url(#clip0_10_156)">
<path d="M14.2313 34.2128C14.5874 34.5709 15.0111 34.8548 15.4777 35.0481C15.9443 35.2414 16.4446 35.3402 16.9496 35.3389C17.9768 35.3389 18.942 34.9388 19.6684 34.2128L20.9659 32.9153L22.062 31.8192L34.8806 25.2476C34.9523 25.2109 35.0103 25.1521 35.0459 25.0799C35.0816 25.0078 35.093 24.926 35.0786 24.8468C35.0711 24.8063 34.8863 23.8444 33.8798 22.8379C33.1579 22.116 32.4608 21.8179 32.1083 21.7035C31.9943 21.351 31.6958 20.6539 30.9739 19.932C30.252 19.2101 29.5549 18.912 29.2024 18.7976C29.088 18.4451 28.7899 17.748 28.068 17.0261C27.3461 16.3043 26.649 16.0061 26.2965 15.8918C26.1821 15.5393 25.884 14.8421 25.1621 14.1203C24.1556 13.1138 23.1934 12.9289 23.1533 12.9214C23.074 12.9069 22.9921 12.9183 22.9199 12.954C22.8476 12.9897 22.7887 13.0477 22.752 13.1194L16.1813 25.938L15.0851 27.0341L13.7876 28.3316C13.4295 28.6879 13.1456 29.1116 12.9523 29.5782C12.759 30.0449 12.6601 30.5453 12.6615 31.0504C12.6615 32.0775 13.0616 33.0428 13.7876 33.7691L14.2313 34.2128ZM34.2596 24.7234L21.9101 31.0545L21.0769 30.2209L31.878 22.4171C32.1413 22.5034 32.7308 22.7498 33.3495 23.3681C33.8895 23.9081 34.146 24.4256 34.2596 24.7234ZM31.3691 21.8595L20.5399 29.6839L19.6931 28.8371L29.0074 19.5233C29.2856 19.6189 29.8511 19.8698 30.4436 20.4623C31.0099 21.0285 31.2645 21.5704 31.3691 21.8595ZM28.4771 18.9926L19.1629 28.3069L18.3161 27.4602L26.1405 16.6313C26.4304 16.7363 26.9719 16.9913 27.5378 17.5568C28.1306 18.1493 28.3815 18.7159 28.4771 18.993V18.9926ZM23.2766 13.7408C23.5748 13.8544 24.0923 14.1109 24.6319 14.6505C25.251 15.2696 25.4974 15.8599 25.5829 16.1216L17.7791 26.9231L16.9455 26.0899L23.2766 13.7408ZM16.4873 26.6922L17.5598 27.7647L20.2354 30.4399L21.3079 31.5124L20.7008 32.1199L15.8801 27.2993L16.4873 26.6922ZM14.3175 28.8619L15.3499 27.8295L20.1705 32.6502L19.1381 33.6825C18.8514 33.9708 18.5104 34.1994 18.1347 34.355C17.759 34.5105 17.3562 34.5901 16.9496 34.5889C16.543 34.5901 16.1402 34.5105 15.7646 34.355C15.3889 34.1994 15.0479 33.9708 14.7611 33.6825L14.3175 33.2389C14.0292 32.9521 13.8006 32.611 13.645 32.2353C13.4894 31.8596 13.4099 31.4567 13.4111 31.05C13.4111 30.2235 13.7329 29.4465 14.3175 28.8619Z" fill="white" stroke="white" stroke-width="0.6"/>
</g>
<defs>
<clipPath id="clip0_10_156">
<rect width="24" height="24" fill="white" transform="translate(12 12)"/>
</clipPath>
</defs>
</svg>
